<?xml version="1.0" encoding="UTF-8"?>
<svg xmlns="http://www.w3.org/2000/svg" style="display: none;">
    <!-- 基础图标 -->
    <symbol id="icon-github" viewBox="0 0 24 24">
        <path d="M12 .297c-6.63 0-12 5.373-12 12 0 5.303 3.438 9.8 8.205 11.385.6.113.82-.258.82-.577 0-.285-.01-1.04-.015-2.04-3.338.724-4.042-1.61-4.042-1.61C4.422 18.07 3.633 17.7 3.633 17.7c-1.087-.744.084-.729.084-.729 1.205.084 1.838 1.236 1.838 1.236 1.07 1.835 2.809 1.305 3.495.998.108-.776.417-1.305.76-1.605-2.665-.3-5.466-1.332-5.466-5.93 0-1.31.465-2.38 1.235-3.22-.135-.303-.54-1.523.105-3.176 0 0 1.005-.322 3.3 1.23.96-.267 1.98-.399 3-.405 1.02.006 2.04.138 3 .405 2.28-1.552 3.285-1.23 3.285-1.23.645 1.653.24 2.873.12 3.176.765.84 1.23 1.91 1.23 3.22 0 4.61-2.805 5.625-5.475 5.92.42.36.81 1.096.81 2.22 0 1.606-.015 2.896-.015 3.286 0 .315.21.69.825.57C20.565 22.092 24 17.592 24 12.297c0-6.627-5.373-12-12-12"/>
    </symbol>
    <symbol id="icon-menu" viewBox="0 0 24 24">
        <path d="M3 18h18v-2H3v2zm0-5h18v-2H3v2zm0-7v2h18V6H3z"/>
    </symbol>
    <symbol id="icon-search" viewBox="0 0 24 24">
        <path d="M15.5 14h-.79l-.28-.27C15.41 12.59 16 11.11 16 9.5 16 5.91 13.09 3 9.5 3S3 5.91 3 9.5 5.91 16 9.5 16c1.61 0 3.09-.59 4.23-1.57l.27.28v.79l5 4.99L20.49 19l-4.99-5zm-6 0C7.01 14 5 11.99 5 9.5S7.01 5 9.5 5 14 7.01 14 9.5 11.99 14 9.5 14z"/>
    </symbol>
    <symbol id="icon-close" viewBox="0 0 24 24">
        <path d="M19 6.41L17.59 5 12 10.59 6.41 5 5 6.41 10.59 12 5 17.59 6.41 19 12 13.41 17.59 19 19 17.59 13.41 12z"/>
    </symbol>
    <symbol id="icon-mail" viewBox="0 0 24 24">
        <path d="M20 4H4c-1.1 0-2 .9-2 2v12c0 1.1.9 2 2 2h16c1.1 0 2-.9 2-2V6c0-1.1-.9-2-2-2zm0 4l-8 5-8-5V6l8 5 8-5v2z"/>
    </symbol>
    <symbol id="icon-code-box" viewBox="0 0 24 24">
        <path d="M19 3H5c-1.1 0-2 .9-2 2v14c0 1.1.9 2 2 2h14c1.1 0 2-.9 2-2V5c0-1.1-.9-2-2-2zm-8 5h2v2h-2V8zm0 3h2v2h-2v-2zm-3-3h2v2H8V8zm0 3h2v2H8v-2zm-1 2H5v-2h2v2zm0-3H5V8h2v2zm9 7H8v-2h8v2zm0-4h-2v-2h2v2zm0-3h-2V8h2v2zm3 3h-2v-2h2v2zm0-3h-2V8h2v2z"/>
    </symbol>
    <symbol id="icon-star" viewBox="0 0 24 24">
        <path d="M12 17.27L18.18 21l-1.64-7.03L22 9.24l-7.19-.61L12 2 9.19 8.63 2 9.24l5.46 4.73L5.82 21z"/>
    </symbol>
    <symbol id="icon-git-branch" viewBox="0 0 24 24">
        <path d="M13 14c-3.36 0-4.46 1.35-5 2.67V9.83c1.21-.51 2-1.7 2-3.08C10 4.77 8.23 3 6 3S2 4.77 2 7c0 1.38.79 2.57 2 3.08V18c0 1.1.9 2 2 2s2-.9 2-2v-1.17c.54-1.32 1.64-2.67 5-2.67 3.36 0 4.46 1.35 5 2.67V14c1.21-.51 2-1.7 2-3.08 0-2.23-1.77-4-4-4s-4 1.77-4 4c0 1.38.79 2.57 2 3.08zM6 5c1.1 0 2 .9 2 2s-.9 2-2 2-2-.9-2-2 .9-2 2-2zm10 6c1.1 0 2 .9 2 2s-.9 2-2 2-2-.9-2-2 .9-2 2-2z"/>
    </symbol>
    <symbol id="icon-external-link" viewBox="0 0 24 24">
        <path d="M19 19H5V5h7V3H5c-1.11 0-2 .9-2 2v14c0 1.1.89 2 2 2h14c1.1 0 2-.9 2-2v-7h-2v7zM14 3v2h3.59l-9.83 9.83 1.41 1.41L19 6.41V10h2V3h-7z"/>
    </symbol>
</svg> 